:SAMPLES-PER-SECOND 30
:FULLY-SPECIFIED
:DEGREES
50
root  -23.8564 38.3287 -17.2645 162.433 -65.4892 -166.425
RightUpLeg  12.0302 -16.0673 1.15577
RightLeg  23.2075 -1.90502 -0.985988
RightFoot  -24.5096 0.0530379 1.915
RightToes  0.00048216 0.542163 -0.142577
Spine  15.6915 -1.81913 12.1251
Spine1  14.6789 0.625603 -3.16078
HEad  10.412 9.67952 -9.04368
LeftShoulder1  7.62803 -12.6831 -40.8277
LeftArm  -10.1564 14.3241 -26.8063
LeftForeArm  21.0055 -15.1321 -4.5776
LeftHand  -0.25398 0.0180481 5.50724
RightShoulder  4.66103 9.74204 29.2096
RightArm  -2.32817 23.143 29.9466
RightForeArm  0.379217 16.0503 6.57455
RightHand  -1.31317 3.37872 -17.5586
LeftUpLeg  -22.4022 6.81277 5.64126
LeftLeg  -6.24102 36.2031 -9.84865
LeftFoot  -6.51357 0.261355 -5.17443
LeftToes  1.06246e-005 4.65856e-005 -8.18501e-006
51
root  -25.3798 37.9422 -18.0378 162.299 -66.3409 -165.717
RightUpLeg  14.4456 -16.6413 0.66544
RightLeg  23.5637 -1.99793 -1.11062
RightFoot  -25.9112 0.147403 2.49379
RightToes  0.00048216 0.542163 -0.142577
Spine  14.9474 -1.60757 10.8576
Spine1  15.0567 0.709578 -3.10566
HEad  10.4289 9.37839 -7.81757
LeftShoulder1  7.59546 -12.814 -40.2833
LeftArm  -11.4326 15.1502 -26.0657
LeftForeArm  21.2637 -12.2381 -4.82188
LeftHand  -0.25398 0.0180481 5.50724
RightShoulder  4.80045 9.92563 29.7773
RightArm  -1.51318 22.8994 30.4171
RightForeArm  0.330052 17.0031 6.24708
RightHand  -1.1825 2.7397 -17.0547
LeftUpLeg  -23.0969 7.476 5.03522
LeftLeg  -4.37379 37.5373 -10.0243
LeftFoot  -6.52127 0.202548 -3.80557
LeftToes  1.06246e-005 4.65856e-005 -8.18501e-006
52
root  -26.8956 37.6123 -18.8162 165.137 -66.8268 -167.826
RightUpLeg  15.6641 -15.8411 -0.509684
RightLeg  25.0993 -1.85914 -1.18609
RightFoot  -26.565 0.60659 5.87339
RightToes  0.00048216 0.542163 -0.142577
Spine  14.8468 -0.782117 8.22285
Spine1  15.0556 1.27692 -2.94796
HEad  10.3079 8.56553 -6.52343
LeftShoulder1  7.69507 -13.0326 -40.2709
LeftArm  -11.7276 15.1767 -24.757
LeftForeArm  22.084 -9.9623 -4.92023
LeftHand  -0.25398 0.0180481 5.50724
RightShoulder  5.02985 10.0976 31.0287
RightArm  -0.222736 21.2789 30.4915
RightForeArm  -1.43994 19.4025 5.56284
RightHand  -1.23417 2.87417 -17.4844
LeftUpLeg  -25.0679 9.58346 3.06214
LeftLeg  1.1108 35.7174 -7.57152
LeftFoot  -2.11689 -0.150893 1.48515
LeftToes  1.06246e-005 4.65856e-005 -8.18501e-006
53
root  -28.3082 37.3584 -19.5211 169.315 -67.1393 -171.448
RightUpLeg  14.3406 -14.4031 -2.20219
RightLeg  30.8106 -1.35796 -1.11319
RightFoot  -24.038 1.12496 11.8334
RightToes  0.00048216 0.542163 -0.142577
Spine  16.3265 0.221357 5.08621
Spine1  13.9976 1.82659 -2.64899
HEad  9.4862 7.5614 -5.57275
LeftShoulder1  7.84558 -13.2401 -40.5747
LeftArm  -11.5965 14.4227 -23.3889
LeftForeArm  23.3806 -8.95616 -4.91124
LeftHand  -0.25398 0.0180481 5.50724
RightShoulder  5.32496 10.3452 32.5056
RightArm  0.607523 19.4826 30.3502
RightForeArm  -2.70873 21.6079 5.13956
RightHand  -1.39204 3.43614 -18.478
LeftUpLeg  -28.9381 17.0738 -2.72023
LeftLeg  8.2345 25.8684 -2.89829
LeftFoot  5.83506 -1.5414 9.84294
LeftToes  1.06246e-005 4.65856e-005 -8.18501e-006
54
root  -29.5376 37.2319 -20.0653 172.665 -68.1748 -174.52
RightUpLeg  9.38115 -14.1601 -4.07235
RightLeg  42.1942 -1.17719 -1.47979
RightFoot  -15.4327 0.476486 15.4383
RightToes  0.00048216 0.542163 -0.142577
Spine  19.622 0.53539 2.92688
Spine1  12.3504 1.77985 -2.64686
HEad  7.3056 6.61633 -5.52451
LeftShoulder1  8.09718 -13.6511 -40.8971
LeftArm  -11.7223 12.7295 -22.3042
LeftForeArm  24.4918 -9.24904 -4.85399
LeftHand  -0.25398 0.0180481 5.50724
RightShoulder  5.5853 10.7431 33.2607
RightArm  0.649359 18.7636 30.6693
RightForeArm  -1.80835 22.2224 5.04389
RightHand  -1.38838 3.35106 -18.5889
LeftUpLeg  -33.508 25.8671 -10.9283
LeftLeg  13.277 12.4327 0.734643
LeftFoot  11.6487 -3.36142 16.2311
LeftToes  1.06246e-005 4.65856e-005 -8.18501e-006
55
root  -30.4799 37.164 -20.4275 175.668 -69.9225 -177.354
RightUpLeg  1.16273 -14.7058 -5.62329
RightLeg  55.9931 -1.3649 -2.62536
RightFoot  -3.00869 -0.955108 13.2692
RightToes  0.00048216 0.542163 -0.142577
Spine  24.2204 0.0964588 1.86713
Spine1  11.3832 1.32869 -3.33835
HEad  3.80132 5.60855 -6.56299
LeftShoulder1  8.46135 -14.4506 -40.8309
LeftArm  -11.8682 9.84779 -21.9234
LeftForeArm  25.0122 -10.4256 -4.84989
LeftHand  -0.25398 0.0180481 5.50724
RightShoulder  5.66876 11.167 32.6956
RightArm  -0.0328558 19.9452 31.8019
RightForeArm  0.60615 20.7007 5.1207
RightHand  -1.1738 2.49308 -17.4145
LeftUpLeg  -36.3883 28.8799 -15.9681
LeftLeg  17.3718 6.30663 2.7122
LeftFoot  11.4086 -3.76475 18.2104
LeftToes  1.06246e-005 4.65856e-005 -8.18501e-006
56
root  -31.1367 37.1453 -20.694 179.212 -71.317 179.506
RightUpLeg  -8.46574 -14.761 -6.39838
RightLeg  67.076 -1.17136 -3.73599
RightFoot  4.88887 -1.214 8.58251
RightToes  0.00048216 0.542163 -0.142577
Spine  29.3149 -0.353825 1.25225
Spine1  11.3531 1.16655 -4.46846
HEad  -0.232822 4.17226 -7.93684
LeftShoulder1  8.67775 -15.3805 -39.7176
LeftArm  -11.6605 5.55238 -22.9769
LeftForeArm  25.2307 -11.7841 -4.9352
LeftHand  -0.25398 0.0180481 5.50724
RightShoulder  5.55998 11.4802 31.1511
RightArm  -2.35278 22.95 33.0803
RightForeArm  3.4835 17.5051 5.75634
RightHand  -0.969064 1.67613 -16.0521
LeftUpLeg  -36.9186 28.2133 -17.0177
LeftLeg  20.2698 6.32306 2.91804
LeftFoot  8.36312 -3.20229 17.9792
LeftToes  1.06246e-005 4.65856e-005 -8.18501e-006
57
root  -31.7146 37.3411 -20.9717 -178.837 -71.9564 178.484
RightUpLeg  -17.8399 -14.3211 -5.88874
RightLeg  72.7384 -0.923468 -4.33407
RightFoot  5.46306 -0.797319 5.59917
RightToes  0.00048216 0.542163 -0.142577
Spine  34.0613 -0.592995 1.67896
Spine1  11.58 1.48934 -5.41654
HEad  -4.23229 2.22845 -8.60889
LeftShoulder1  8.5765 -16.0731 -37.6579
LeftArm  -11.5658 -0.383817 -25.2278
LeftForeArm  25.3367 -12.4587 -5.05854
LeftHand  -0.25398 0.0180481 5.50724
RightShoulder  5.40489 11.8216 29.2844
RightArm  -6.36018 26.9639 33.6357
RightForeArm  5.87609 13.7166 6.63708
RightHand  -0.892464 1.36668 -15.4481
LeftUpLeg  -37.3642 29.6162 -18.0938
LeftLeg  20.7 4.33017 2.14564
LeftFoot  7.10768 -2.90767 17.4952
LeftToes  1.06246e-005 4.65856e-005 -8.18501e-006
58
root  -32.2614 37.6622 -21.2695 -179.134 -72.5952 -179.746
RightUpLeg  -26.0663 -13.9799 -4.48546
RightLeg  72.415 -0.903887 -4.22264
RightFoot  2.54629 -0.699601 5.93516
RightToes  0.00048216 0.542163 -0.142577
Spine  38.0411 -0.997101 3.14532
Spine1  12.2421 1.90115 -6.10382
HEad  -8.40125 0.105491 -8.41993
LeftShoulder1  8.40293 -16.5773 -35.7475
LeftArm  -12.5804 -7.93171 -27.1884
LeftForeArm  25.1873 -11.839 -5.15632
LeftHand  -0.25398 0.0180481 5.50724
RightShoulder  5.26129 12.3443 27.1548
RightArm  -10.7743 31.3656 33.4638
RightForeArm  7.48382 10.1535 6.90779
RightHand  -0.909159 1.49843 -15.4408
LeftUpLeg  -37.8711 30.7583 -18.4006
LeftLeg  19.9437 2.21831 1.22279
LeftFoot  7.61121 -2.946 17.2316
LeftToes  1.06246e-005 4.65856e-005 -8.18501e-006
59
root  -32.7612 37.9457 -21.5954 179.71 -73.7413 -176.793
RightUpLeg  -32.6152 -13.9014 -2.90602
RightLeg  66.6313 -1.44412 -4.30702
RightFoot  0.613927 -0.793623 7.57809
RightToes  0.00048216 0.542163 -0.142577
Spine  41.4416 -1.74724 4.79623
Spine1  13.345 2.12327 -6.69011
HEad  -12.7712 -1.79595 -7.89994
LeftShoulder1  8.39456 -17.2171 -34.4334
LeftArm  -14.7467 -16.2057 -28.0147
LeftForeArm  24.6868 -10.2343 -5.08228
LeftHand  -0.25398 0.0180481 5.50724
RightShoulder  5.06046 12.8894 24.7224
RightArm  -14.2723 35.9905 32.9069
RightForeArm  8.06022 7.04977 6.45213
RightHand  -0.983778 1.95263 -15.6956
LeftUpLeg  -38.4681 30.3743 -18.0438
LeftLeg  19.4046 1.30876 0.842361
LeftFoot  7.59313 -2.87302 16.8184
LeftToes  1.06246e-005 4.65856e-005 -8.18501e-006
60
root  -33.2438 38.1915 -21.983 178.504 -74.977 -173.562
RightUpLeg  -37.3389 -13.5963 -1.32752
RightLeg  56.3332 -2.92463 -5.10844
RightFoot  0.872694 -0.748831 7.05798
RightToes  0.00048216 0.542163 -0.142577
Spine  44.8897 -2.53376 6.08241
Spine1  13.709 2.24877 -7.21994
HEad  -16.6377 -3.28381 -7.22706
LeftShoulder1  8.42739 -18.089 -32.9541
LeftArm  -16.8643 -23.8684 -28.2146
LeftForeArm  23.9491 -8.48401 -4.80285
LeftHand  -0.25398 0.0180481 5.50724
RightShoulder  4.87299 13.3565 22.6456
RightArm  -16.6254 40.521 31.6464
RightForeArm  7.17528 4.40681 5.91491
RightHand  -1.09954 2.58727 -16.1704
LeftUpLeg  -39.2938 29.4876 -17.5317
LeftLeg  19.0784 0.752842 0.620706
LeftFoot  7.03607 -2.70851 16.3592
LeftToes  1.06246e-005 4.65856e-005 -8.18501e-006
61
root  -33.7319 38.3599 -22.4688 178.535 -76.1552 -171.285
RightUpLeg  -40.4338 -12.8374 -0.262776
RightLeg  43.1856 -4.26322 -4.63958
RightFoot  1.42024 -0.671378 6.08314
RightToes  0.00048216 0.542163 -0.142577
Spine  48.3055 -3.03275 6.60872
Spine1  13.176 2.37715 -7.64488
HEad  -19.7624 -4.50384 -6.2629
LeftShoulder1  8.39196 -19.1607 -30.9318
LeftArm  -18.4332 -30.7108 -28.1015
LeftForeArm  23.183 -6.72629 -4.48065
LeftHand  -0.25398 0.0180481 5.50724
RightShoulder  4.80682 13.9319 21.2263
RightArm  -18.9946 44.6507 29.0953
RightForeArm  5.53514 2.17315 5.64556
RightHand  -1.20329 3.16769 -16.5187
LeftUpLeg  -40.9462 28.7201 -17.4902
LeftLeg  19.3154 -0.209741 0.246517
LeftFoot  6.84619 -2.62456 16.0243
LeftToes  1.06246e-005 4.65856e-005 -8.18501e-006
